<svg xmlns="http://www.w3.org/2000/svg" version="1.1" xmlnsXlink="http://www.w3.org/1999/xlink" xmlnsSvgjs="http://svgjs.dev/svgjs" width="1500" height="318" viewBox="0 0 1500 318"><g transform="matrix(1,0,0,1,-0.9090909090909918,-0.6731163745102151)"><svg viewBox="0 0 396 84" data-background-color="#fff3e1" preserveAspectRatio="xMidYMid meet" height="318" width="1500" xmlns="http://www.w3.org/2000/svg" xmlnsXlink="http://www.w3.org/1999/xlink"><g id="tight-bounds" transform="matrix(1,0,0,1,0.2400000000000091,0.17780432534232204)"><svg viewBox="0 0 395.52 83.64439134931537" height="83.64439134931537" width="395.52"><g><svg viewBox="0 0 508.31808869175256 107.49888031065169" height="83.64439134931537" width="395.52"><g transform="matrix(1,0,0,1,112.79808869175257,20.507983975550566)"><svg viewBox="0 0 395.52 66.48291235955055" height="66.48291235955055" width="395.52"><g id="textblocktransform"><svg viewBox="0 0 395.52 66.48291235955055" height="66.48291235955055" width="395.52" id="textblock"><g><svg viewBox="0 0 395.52 66.48291235955055" height="66.48291235955055" width="395.52"><g transform="matrix(1,0,0,1,0,0)"><svg width="395.52" viewBox="3.1 -37 222.49 37.4" height="66.48291235955055" data-palette-color="#000000"><g class="wordmark-text-0" data-fill-palette-color="primary" id="text-0"><path d="M30.65 0L21 0 13.7-13.25 11.65-13.25 11.65 0 3.1 0 3.1-35.1 17.45-35.1Q21.6-35.1 24.53-33.65 27.45-32.2 28.9-29.68 30.35-27.15 30.35-24.05L30.35-24.05Q30.35-20.55 28.38-17.8 26.4-15.05 22.55-13.9L22.55-13.9 30.65 0ZM11.65-28L11.65-19.3 16.95-19.3Q19.3-19.3 20.48-20.45 21.65-21.6 21.65-23.7L21.65-23.7Q21.65-25.7 20.48-26.85 19.3-28 16.95-28L16.95-28 11.65-28ZM61.8 0L52.2 0 46.85-7.75 42.35 0 33.1 0 42.3-14.25 32.85-27.9 42.45-27.9 47.8-20.2 52.3-27.9 61.55-27.9 52.2-13.85 61.8 0ZM63.65-17.6Q63.65-22.8 65.9-26.88 68.15-30.95 72.17-33.23 76.2-35.5 81.3-35.5L81.3-35.5Q87.55-35.5 92-32.2 96.45-28.9 97.95-23.2L97.95-23.2 88.55-23.2Q87.5-25.4 85.57-26.55 83.65-27.7 81.2-27.7L81.2-27.7Q77.25-27.7 74.8-24.95 72.34-22.2 72.34-17.6L72.34-17.6Q72.34-13 74.8-10.25 77.25-7.5 81.2-7.5L81.2-7.5Q83.65-7.5 85.57-8.65 87.5-9.8 88.55-12L88.55-12 97.95-12Q96.45-6.3 92-3.03 87.55 0.25 81.3 0.25L81.3 0.25Q76.2 0.25 72.17-2.02 68.15-4.3 65.9-8.35 63.65-12.4 63.65-17.6L63.65-17.6ZM120.34-28.2Q125.14-28.2 128.04-25.03 130.94-21.85 130.94-16.3L130.94-16.3 130.94 0 122.44 0 122.44-15.15Q122.44-17.95 120.99-19.5 119.54-21.05 117.09-21.05L117.09-21.05Q114.64-21.05 113.19-19.5 111.74-17.95 111.74-15.15L111.74-15.15 111.74 0 103.19 0 103.19-37 111.74-37 111.74-24.15Q113.04-26 115.29-27.1 117.54-28.2 120.34-28.2L120.34-28.2ZM163.19-14.4Q163.19-13.2 163.04-11.9L163.04-11.9 143.69-11.9Q143.89-9.3 145.37-7.93 146.84-6.55 148.99-6.55L148.99-6.55Q152.19-6.55 153.44-9.25L153.44-9.25 162.54-9.25Q161.84-6.5 160.02-4.3 158.19-2.1 155.44-0.85 152.69 0.4 149.29 0.4L149.29 0.4Q145.19 0.4 141.99-1.35 138.79-3.1 136.99-6.35 135.19-9.6 135.19-13.95L135.19-13.95Q135.19-18.3 136.97-21.55 138.74-24.8 141.94-26.55 145.14-28.3 149.29-28.3L149.29-28.3Q153.34-28.3 156.49-26.6 159.64-24.9 161.42-21.75 163.19-18.6 163.19-14.4L163.19-14.4ZM143.74-16.65L154.44-16.65Q154.44-18.85 152.94-20.15 151.44-21.45 149.19-21.45L149.19-21.45Q147.04-21.45 145.57-20.2 144.09-18.95 143.74-16.65L143.74-16.65ZM165.99-13.95Q165.99-18.3 167.76-21.55 169.54-24.8 172.71-26.55 175.89-28.3 179.99-28.3L179.99-28.3Q185.24-28.3 188.76-25.55 192.29-22.8 193.39-17.8L193.39-17.8 184.29-17.8Q183.14-21 179.84-21L179.84-21Q177.49-21 176.09-19.18 174.69-17.35 174.69-13.95L174.69-13.95Q174.69-10.55 176.09-8.72 177.49-6.9 179.84-6.9L179.84-6.9Q183.14-6.9 184.29-10.1L184.29-10.1 193.39-10.1Q192.29-5.2 188.74-2.4 185.19 0.4 179.99 0.4L179.99 0.4Q175.89 0.4 172.71-1.35 169.54-3.1 167.76-6.35 165.99-9.6 165.99-13.95L165.99-13.95ZM225.59 0L214.99 0 206.49-11.7 206.49 0 197.94 0 197.94-37 206.49-37 206.49-16.55 214.94-27.9 225.49-27.9 213.89-13.9 225.59 0Z" fill="#000000" data-fill-palette-color="primary"></path></g></svg></g></svg></g></svg></g></svg></g><g><svg viewBox="0 0 97.1030686735593 107.49888031065169" height="107.49888031065169" width="97.1030686735593"><g><svg xmlns="http://www.w3.org/2000/svg" xmlnsXlink="http://www.w3.org/1999/xlink" version="1.1" x="0" y="0" viewBox="216.77100000000002 212.566 78.46100000000001 86.86100000000008" enable-background="new 206 206 100 100" xmlSpace="preserve" height="107.49888031065169" width="97.1030686735593" class="icon-icon-0" data-fill-palette-color="accent" id="icon-0"><g fill="#ff5c35" data-fill-palette-color="accent"><path d="M294.936 256.324c0-0.004-0.003-0.007-0.004-0.011-1.412-5.428-7.53-11.801-8.963-13.237v-1.415h2.004c0.528 0 0.956-0.428 0.956-0.956v-13.655c0-2.452-1.942-3.342-3.247-3.342h-2.82c-3.521-6.623-10.495-11.142-18.506-11.142-11.551 0-20.949 9.397-20.949 20.948 0 3.142 0.698 6.123 1.941 8.8-0.245 0.141-0.472 0.315-0.678 0.521l-1.984 1.982c-0.638 0.638-0.956 1.476-0.956 2.314 0 0.764 0.267 1.526 0.798 2.139l-2.922 2.922c-2.297-0.371-4.685 0.39-6.344 2.049l-14.343 14.342c-1.375 1.376-2.137 3.214-2.148 5.179v0.035c0 1.938 0.762 3.767 2.148 5.15 2.857 2.86 7.507 2.86 10.367 0.002l14.342-14.342c1.375-1.375 2.137-3.214 2.148-5.186-0.001-0.396-0.032-0.784-0.095-1.162l1.595-1.596c-0.111 0.358-0.17 0.737-0.17 1.131v37.814c0 2.106 1.713 3.819 3.819 3.819h40.487c2.107 0 3.82-1.713 3.82-3.819v-37.814C295.232 257.275 295.124 256.777 294.936 256.324zM245.317 233.516c0-10.499 8.54-19.039 19.039-19.039 6.913 0 12.979 3.705 16.313 9.232 0.372 0.615 0.708 1.253 1.008 1.91 1.103 2.407 1.718 5.08 1.718 7.897 0 2.183-0.368 4.282-1.051 6.235-0.227 0.653-0.487 1.291-0.783 1.91-3.056 6.434-9.619 10.893-17.205 10.893-4.015 0-7.741-1.247-10.813-3.378-0.525-0.361-1.033-0.753-1.518-1.167C247.922 244.516 245.317 239.314 245.317 233.516zM244.033 248.097c-0.529-0.532-0.529-1.396 0.002-1.926l1.984-1.983c0.067-0.066 0.14-0.122 0.214-0.174 1.222 2.103 2.8 3.972 4.65 5.529 0.487 0.41 0.993 0.8 1.516 1.167 0.472 0.329 0.957 0.638 1.456 0.928-0.05 0.074-0.105 0.147-0.172 0.214l-1.982 1.984c-0.054 0.053-0.111 0.101-0.172 0.143-0.365 0.263-0.833 0.323-1.243 0.176-0.067-0.021-0.132-0.05-0.195-0.084-0.113-0.059-0.218-0.138-0.313-0.231l-0.972-0.972L244.033 248.097zM276.403 272.807h4.123v8.559h-4.123c-0.528 0-0.954 0.427-0.954 0.955v4.124h-8.56v-4.124c0-0.528-0.427-0.955-0.954-0.955h-4.125v-8.559h4.125c0.527 0 0.954-0.426 0.954-0.955v-4.122h8.56v4.122C275.448 272.382 275.874 272.807 276.403 272.807zM293.322 295.613c0 1.052-0.857 1.909-1.91 1.909h-40.487c-1.052 0-1.91-0.857-1.91-1.909v-2.292h44.307V295.613zM293.322 260.09h-44.307v-2.291c0-0.264 0.053-0.516 0.15-0.742 0.004-0.008 0.008-0.017 0.014-0.027 0.182-0.416 0.512-0.754 0.92-0.951 0.634 0.126 1.299 0.063 1.902-0.189h39.411c0.776 0 1.445 0.466 1.744 1.132 0.003 0.014 0.01 0.025 0.015 0.035 0.098 0.227 0.151 0.479 0.151 0.742V260.09z" fill="#ff5c35" data-fill-palette-color="accent"></path><path d="M253.944 245.683c0.485 0.418 0.997 0.806 1.532 1.161 2.543 1.701 5.599 2.693 8.88 2.693 5.863 0 10.998-3.165 13.79-7.876 0.363-0.611 0.688-1.249 0.969-1.91 0.812-1.917 1.262-4.024 1.262-6.235 0-2.871-0.757-5.565-2.085-7.897-0.38-0.668-0.806-1.307-1.275-1.91-2.934-3.78-7.518-6.215-12.66-6.215-8.835 0-16.023 7.187-16.023 16.021C248.332 238.381 250.512 242.744 253.944 245.683zM264.356 219.405c3.975 0 7.569 1.652 10.137 4.305h-17.839c-1.305 0-3.247 0.89-3.247 3.342v13.655c0 0.527 0.428 0.956 0.955 0.956h2.005v1.415c-0.254 0.254-0.653 0.661-1.146 1.19-3.044-2.591-4.979-6.45-4.979-10.75C250.242 225.736 256.573 219.405 264.356 219.405z" fill="#ff5c35" data-fill-palette-color="accent"></path></g></svg></g></svg></g></svg></g><defs></defs></svg><rect width="395.52" height="83.64439134931537" fill="none" stroke="none" visibility="hidden"></rect></g></svg></g></svg>